<?xml version="1.0" standalone="no"?>
<!DOCTYPE svg PUBLIC "-//W3C//DTD SVG 20010904//EN"
 "http://www.w3.org/TR/2001/REC-SVG-20010904/DTD/svg10.dtd">
<svg version="1.0" xmlns="http://www.w3.org/2000/svg"
 width="382.000000pt" height="382.000000pt" viewBox="0 0 382.000000 382.000000"
 preserveAspectRatio="xMidYMid meet">
<metadata>
Created by potrace 1.11, written by Peter Selinger 2001-2013
</metadata>
<g transform="translate(0.000000,382.000000) scale(0.100000,-0.100000)"
fill="#000000" stroke="none">
<path d="M364 2412 c-6 -4 -16 -17 -23 -30 -10 -19 -10 -28 4 -48 16 -24 24
-28 60 -24 45 4 61 68 23 94 -24 17 -47 20 -64 8z"/>
<path d="M2476 2402 c-3 -2 -5 -153 -5 -335 -1 -211 -5 -333 -12 -337 -5 -4
-29 -6 -52 -5 l-42 2 -3 111 -3 112 -113 0 -112 0 -112 -112 -112 -112 0 -57
0 -57 618 -1 617 0 53 52 c28 28 52 54 52 57 0 3 -145 5 -322 5 -178 -1 -328
0 -333 2 -7 2 -11 119 -12 334 0 181 -4 333 -8 337 -7 7 -93 11 -99 4z m-231
-604 c2 -72 0 -73 -117 -70 l-105 3 3 52 c1 29 2 53 3 55 0 1 49 1 108 0 l106
-3 2 -37z"/>
<path d="M3497 2402 c-17 -3 -18 -18 -17 -205 1 -111 1 -212 1 -224 l-1 -23
-392 -2 -393 -3 0 -52 c0 -52 0 -53 30 -54 16 0 143 -1 280 -2 l250 -2 1 -30
c1 -16 2 -41 3 -55 1 -23 5 -20 59 32 55 54 59 57 110 57 59 0 54 14 54 -141
l1 -88 58 1 58 1 110 113 111 113 0 56 0 56 -110 0 c-81 0 -110 3 -111 13 -1
6 -2 105 -3 219 0 113 -4 210 -9 214 -8 8 -60 12 -90 6z m212 -617 l0 -56 -57
3 -57 3 0 53 0 52 57 0 57 0 0 -55z"/>
<path d="M3738 2402 l-28 -3 0 -165 0 -164 55 0 55 0 -2 167 -3 166 -25 1
c-14 1 -37 0 -52 -2z"/>
<path d="M2254 2376 c-13 -22 -14 -29 -2 -53 11 -23 20 -28 48 -28 27 0 38 6
49 26 13 24 13 29 -2 53 -23 35 -70 36 -93 2z"/>
<path d="M1910 2127 l0 -174 55 -2 c43 -1 55 2 55 14 1 8 1 69 1 135 0 66 0
137 -1 158 l0 39 -55 2 -55 2 0 -174z"/>
<path d="M1036 2274 c-23 -23 -20 -70 5 -88 39 -27 89 -2 89 44 0 50 -60 79
-94 44z"/>
<path d="M1256 2268 c-21 -29 -20 -51 2 -71 19 -18 59 -22 78 -9 22 14 26 52
10 77 -21 33 -69 34 -90 3z"/>
<path d="M1477 2272 c-29 -32 -19 -78 20 -93 51 -19 91 28 66 79 -18 37 -59
44 -86 14z"/>
<path d="M1685 2010 c0 -242 -2 -280 -15 -281 -21 -2 -73 -2 -88 0 -10 1 -13
15 -11 51 2 27 -1 53 -5 57 -4 4 -28 7 -54 8 l-47 0 -5 -60 -5 -60 -50 0 -50
1 -5 169 -5 169 -54 1 -53 1 -114 -115 -114 -115 0 -53 c0 -35 -4 -53 -12 -54
-15 -2 -68 -2 -85 0 -9 1 -13 19 -13 56 l0 56 -57 -3 -57 -3 -1 -45 c0 -25 -3
-50 -7 -55 -5 -9 -37 -11 -93 -6 -7 1 -11 41 -10 111 l0 110 -57 0 -58 0 1
-106 c0 -58 -1 -108 -4 -111 -3 -2 -28 -6 -56 -7 l-51 -2 0 112 c0 96 -2 113
-16 116 -9 2 -61 1 -115 -2 l-100 -5 -53 -52 -54 -53 114 0 114 0 0 -55 c0
-42 -4 -55 -15 -56 -8 -1 -59 -2 -112 -2 l-98 -1 -2 48 c-1 27 -4 50 -6 52 -1
2 -26 -20 -55 -48 -51 -49 -52 -52 -52 -108 l0 -58 897 2 898 1 2 338 2 337
-58 0 -57 0 1 -280z m-452 -130 c-1 -38 -2 -90 -2 -113 l-1 -44 -47 2 c-27 2
-50 3 -54 4 -4 1 -4 208 0 219 1 1 25 2 54 2 l52 0 -2 -70z"/>
<path d="M349 2166 c-16 -35 -4 -74 25 -82 55 -13 96 30 72 77 -8 18 -21 25
-49 27 -31 3 -39 -1 -48 -22z"/>
<path d="M2266 2162 c-37 -42 -7 -109 43 -97 38 10 51 24 51 55 0 48 -62 76
-94 42z"/>
<path d="M799 2059 c-27 -27 -24 -65 6 -85 52 -34 114 21 80 72 -8 13 -19 24
-23 25 -4 0 -15 2 -25 4 -10 2 -27 -5 -38 -16z"/>
<path d="M1501 2057 c-37 -18 -47 -41 -33 -72 14 -31 33 -39 67 -31 29 7 52
53 38 75 -19 30 -47 41 -72 28z"/>
<path d="M3286 1707 c-18 -18 -23 -32 -19 -48 12 -49 59 -63 93 -29 34 34 20
80 -27 95 -17 4 -29 0 -47 -18z"/>
<path d="M350 1488 c-25 -27 -26 -60 -2 -81 50 -46 127 20 85 72 -26 31 -59
34 -83 9z"/>
<path d="M579 1497 c-43 -33 -16 -108 38 -102 49 5 71 66 35 98 -22 20 -51 21
-73 4z"/>
</g>
</svg>
